# AST/ASF file generated using VICON BodyLanguage
# -----------------------------------------------
:version 1.10
:name VICON
:units
  mass 1.0
  length 0.45
  angle deg
:documentation
   .ast/.asf automatically generated from VICON data using
   VICON BodyBuilder and BodyLanguage model FoxedUp or BRILLIANT.MOD
:root
   order TX TY TZ RX RY RZ
   axis XYZ
   position 0 0 0  
   orientation 0 0 0 
:bonedata
  begin
     id 1 
     name lhipjoint
     direction 0.660183 -0.676772 0.325788 
     length 2.75133 
     axis 0 0 0  XYZ
  end
  begin
     id 2 
     name lfemur
     direction 0.34202 -0.939693 0  
     length 7.70317  
     axis 0 0 20  XYZ
    dof rx ry rz
    limits (-160.0 20.0)
           (-70.0 70.0)
           (-60.0 70.0)
  end
  begin
     id 3 
     name ltibia
     direction 0.342105 -0.939662 0   
     length 7.18701   
     axis 0 0 20   XYZ
    dof rx
    limits (-10.0 170.0)
  end
  begin
     id 4 
     name lfoot
     direction 0.14163 -0.389126 0.910232   
     length 2.41719   
     axis -90 7.62852e-016 20   XYZ
    dof rx rz
    limits (-45.0 90.0)
           (-70.0 20.0)
  end
  begin
     id 5 
     name ltoes
     direction 1.53533e-011 -4.21926e-011 1   
     length 1.18611   
     axis -90 7.62852e-016 20   XYZ
    dof rx
    limits (-90.0 20.0)
  end
  begin
     id 6 
     name rhipjoint
     direction -0.6658 -0.67229 0.323631   
     length 2.76968  
     axis 0 0 0  XYZ 
  end
  begin
     id 7 
     name rfemur
     direction -0.34202 -0.939693 0   
     length 7.92547   
     axis 0 0 -20   XYZ
    dof rx ry rz
    limits (-160.0 20.0)
           (-70.0 70.0)
           (-70.0 60.0)
  end
  begin
     id 8 
     name rtibia
     direction -0.342022 -0.939692 0   
     length 7.22641   
     axis 0 0 -20   XYZ
    dof rx
    limits (-10.0 170.0)
 end
 begin
     id 9 
     name rfoot
     direction -0.105675 -0.29034 0.951071   
     length 2.48149  
     axis -90 -7.62852e-016 -20   XYZ
    dof rx rz
    limits (-45.0 90.0)
           (-20.0 70.0)
  end
  begin
     id 10 
     name rtoes
     direction -1.5349e-011 -4.21859e-011 1   
     length 1.23343   
     axis -90 -7.62852e-016 -20   XYZ
    dof rx
    limits (-90.0 20.0)
  end
  begin
     id 11 
     name lowerback
     direction 0.0104173 0.993624 -0.112266   
     length 2.00527   
     axis 0 0 0   XYZ
    dof rx ry rz
    limits (-20.0 45.0)
           (-30.0 30.0)
           (-30.0 30.0)
  end
  begin
     id 12 
     name upperback
     direction 0.00733149 0.999856 -0.0152913   
     length 2.01385   
     axis 0 0 0   XYZ
    dof rx ry rz
    limits (-20.0 45.0)
           (-30.0 30.0)
           (-30.0 30.0)
  end
  begin
     id 13 
     name thorax
     direction 0.0026304 0.999318 0.036841   
     length 2.03734   
     axis 0 0 0   XYZ
    dof rx ry rz
    limits (-20.0 45.0)
           (-30.0 30.0)
           (-30.0 30.0)
  end
  begin
     id 14 
     name lowerneck
     direction 0.0293154 0.998757 0.0403082   
     length 1.65303   
     axis 0 0 0   XYZ
    dof rx ry rz
    limits (-20.0 45.0)
           (-30.0 30.0)
           (-30.0 30.0)
  end
  begin
     id 15 
     name upperneck
     direction -0.0376619 0.998184 -0.0470083   
     length 1.60926   
     axis 0 0 0   XYZ
    dof rx ry rz
    limits (-20.0 45.0)
           (-30.0 30.0)
           (-30.0 30.0)
  end
  begin
     id 16
     name head
     direction -0.0170133 0.999635 -0.0209778  
     length 1.73625  
     axis 0 0 0   XYZ
    dof rx ry rz
    limits (-20.0 45.0)
           (-30.0 30.0)
           (-30.0 30.0)
  end
  begin
     id 17 
     name lclavicle
     direction 0.919857 0.39181 -0.0186333  
     length 3.75313  
     axis 0 0 0   XYZ
    dof ry rz
    limits (-20.0 10.0)
           (0.0 20.0)
  end
  begin
     id 18 
     name lhumerus
     direction 1 -4.48988e-011 1.44029e-027   
     length 5.49313   
     axis 180 -30 -90   XYZ
    dof rx ry rz
    limits (-60.0 90.0)
           (-90.0 90.0)
           (-90.0 90.0)
  end
  begin
     id 19
     name lradius
     direction 1 -4.48924e-011 7.46281e-027   
     length 3.29037   
     axis 180 -30 -90   XYZ
    dof rx
    limits (-10.0 170.0)
  end
  begin
     id 20
     name lwrist
     direction 1 -4.48955e-011 2.19879e-026   
     length 1.64519   
     axis -1.34358e-014 90 90   XYZ
    dof ry
    limits (-180.0 0.0)
 end
  begin
     id 21 
     name lhand
     direction 1 -4.48978e-011 4.39747e-026   
     length 0.729656   
     axis -2.80598e-014 90 90   XYZ
    dof rx rz
    limits (-90.0 90.0)
           (-45.0 45.0)
  end
  begin
     id 22 
     name lfingers
     direction 1 -4.49071e-011 8.79411e-026   
     length 0.588268   
     axis -5.61193e-014 90 90   XYZ
    dof rx
    limits (0.0 90.0)
  end
  begin
     id 23
     name lthumb
     direction 0.707107 -6.34817e-011 0.707107   
     length 0.844638   
     axis -90 45 -9.86923e-015   XYZ
    dof rx rz
    limits (-45.0 45.0)
           (-45.0 45.0)
  end
  begin
     id 24 
     name rclavicle
     direction -0.919898 0.388279 0.0550233   
     length 3.7171  
     axis 0 0 0   XYZ 
    dof ry rz
    limits (-10.0 20.0)
           (-20.0 0.0)
  end
  begin
     id 25 
     name rhumerus
     direction -1 -4.48968e-011 9.98372e-028  
     length 5.23684   
     axis 180 30 90   XYZ
    dof rx ry rz
    limits (-90.0 60.0)
           (-90.0 90.0)
           (-90.0 90.0)
  end
  begin
     id 26 
     name rradius
     direction -1 -4.48956e-011 1.01023e-026   
     length 3.38251   
     axis 180 30 90   XYZ
    dof rx
    limits (-10.0 170.0)
  end
  begin
     id 27 
     name rwrist
     direction -1 -4.4892e-011 2.19886e-026   
     length 1.69126   
     axis -1.34358e-014 -90 -90   XYZ
    dof ry
    limits (-180.0 0.0)
  end
  begin
     id 28
     name rhand
     direction -1 -4.49024e-011 4.39727e-026   
     length 0.691454   
     axis -2.80598e-014 -90 -90   XYZ
    dof rx rz
    limits (-90.0 90.0)
           (-45.0 45.0)
  end
  begin
     id 29
     name rfingers
     direction -1 -4.49097e-011 8.79388e-026   
     length 0.557468   
     axis -5.61193e-014 -90 -90   XYZ
    dof rx
    limits (0.0 90.0)
  end
  begin
     id 30
     name rthumb
     direction -0.707107 -6.34938e-011 0.707107   
     length 0.800416   
     axis -90 -45 9.86923e-015   XYZ
    dof rx rz
    limits (-45.0 45.0)
           (-45.0 45.0)
  end
:hierarchy
  begin
    root lhipjoint rhipjoint lowerback
    lhipjoint lfemur
    lfemur ltibia
    ltibia lfoot
    lfoot ltoes
    rhipjoint rfemur
    rfemur rtibia
    rtibia rfoot
    rfoot rtoes
    lowerback upperback
    upperback thorax
    thorax lowerneck lclavicle rclavicle
    lowerneck upperneck
    upperneck head
    lclavicle lhumerus
    lhumerus lradius
    lradius lwrist
    lwrist lhand lthumb
    lhand lfingers
    rclavicle rhumerus
    rhumerus rradius
    rradius rwrist
    rwrist rhand rthumb
    rhand rfingers
  end

#!OML:ASF H:\BabyWalks\Project 1\Capture day 1\Session 1\baby.ASF
:FULLY-SPECIFIED
:DEGREES
49
root -35.6306 17.5745 -2.98107 -10.969 76.836 -13.9265
lowerback 16.6874 -0.7303 -0.714607
upperback 6.6822 -0.672472 1.92985
thorax -2.19922 -0.232049 2.55121
lowerneck 0.727971 4.52108 0.166
upperneck -11.3053 5.73376 -5.621
head -3.61897 3.14516 -2.07857
rclavicle 7.95139e-015 -2.59787e-014
rhumerus -52.4953 30.3673 -90.3434
rradius 46.5347
rwrist -8.6591
rhand -10.545 -17.7016
rfingers 7.12502
rthumb 15.4588 -47.1035
lclavicle 7.95139e-015 -2.59787e-014
lhumerus -52.1781 -7.56356 87.1299
lradius 50.547
lwrist 4.99562
lhand 2.07961 11.1332
lfingers 7.12502
lthumb 27.5807 39.1322
rfemur 4.10404 12.0645 24.2624
rtibia 14.8835
rfoot -23.4666 -1.87088
rtoes 11.0547
lfemur -22.2023 -2.4378 -13.4851
ltibia 33.8208
lfoot -17.4936 -8.62525
ltoes 2.49592
50
root -35.6286 17.5741 -2.97959 -10.9874 76.8492 -13.9415
lowerback 16.6835 -0.715833 -0.716522
upperback 6.68719 -0.653695 1.92734
thorax -2.19281 -0.222698 2.54615
lowerneck 0.737165 4.51072 0.210289
upperneck -11.2873 5.71944 -5.64462
head -3.61297 3.13682 -2.09342
rclavicle 1.20575e-014 6.99474e-015
rhumerus -52.4945 30.3562 -90.3814
rradius 46.582
rwrist -8.70617
rhand -10.605 -17.6465
rfingers 7.12502
rthumb 15.401 -47.0528
lclavicle 1.20575e-014 6.99474e-015
lhumerus -52.115 -7.57169 87.0676
lradius 50.5647
lwrist 5.03856
lhand 2.05059 11.1236
lfingers 7.12502
lthumb 27.553 39.127
rfemur 4.119 12.0637 24.2718
rtibia 14.8834
rfoot -23.4375 -1.9009
rtoes 10.8593
lfemur -22.1999 -2.43747 -13.4828
ltibia 33.8349
lfoot -17.5621 -8.63812
ltoes 2.19084
51
root -35.6266 17.5738 -2.97799 -10.9897 76.8627 -13.941
lowerback 16.6788 -0.700869 -0.721698
upperback 6.69282 -0.634807 1.92372
thorax -2.18529 -0.213336 2.54173
lowerneck 0.745902 4.49894 0.257193
upperneck -11.2655 5.70324 -5.66956
head -3.60552 3.12739 -2.10896
rclavicle 1.81267e-014 1.00759e-014
rhumerus -52.4957 30.3347 -90.4164
rradius 46.6339
rwrist -8.74659
rhand -10.6807 -17.6001
rfingers 7.12502
rthumb 15.3281 -47.012
lclavicle 1.81267e-014 1.00759e-014
lhumerus -52.054 -7.56852 86.9971
lradius 50.5893
lwrist 5.09013
lhand 2.02565 11.1248
lfingers 7.12502
lthumb 27.5291 39.132
rfemur 4.13161 12.0595 24.2767
rtibia 14.8851
rfoot -23.4177 -1.92994
rtoes 10.6338
lfemur -22.1962 -2.43304 -13.4844
ltibia 33.8445
lfoot -17.6315 -8.65372
ltoes 1.87746
52
root -35.6246 17.5736 -2.97632 -10.9833 76.876 -13.9346
lowerback 16.674 -0.685948 -0.725938
upperback 6.69749 -0.615957 1.91839
thorax -2.17878 -0.203972 2.535
lowerneck 0.757318 4.48672 0.306346
upperneck -11.2425 5.68663 -5.69274
head -3.5982 3.11757 -2.12437
rclavicle -1.84435e-014 1.93815e-015
rhumerus -52.5006 30.3029 -90.4508
rradius 46.6896
rwrist -8.77958
rhand -10.7651 -17.5557
rfingers 7.12502
rthumb 15.2468 -46.9738
lclavicle -1.84435e-014 1.93815e-015
lhumerus -51.998 -7.55628 86.9182
lradius 50.6217
lwrist 5.15056
lhand 2.00635 11.1334
lfingers 7.12502
lthumb 27.5107 39.1436
rfemur 4.13964 12.0512 24.2788
rtibia 14.8885
rfoot -23.399 -1.95311
rtoes 10.413
lfemur -22.1938 -2.42655 -13.4871
ltibia 33.8506
lfoot -17.6963 -8.67092
ltoes 1.58231
53
root -35.6225 17.5734 -2.9746 -10.9666 76.8887 -13.9199
lowerback 16.6684 -0.670648 -0.729381
upperback 6.7027 -0.596552 1.9115
thorax -2.17131 -0.194312 2.52605
lowerneck 0.766278 4.47396 0.357527
upperneck -11.2185 5.66946 -5.71614
head -3.59002 3.10737 -2.14006
rclavicle 4.77083e-015 1.91951e-014
rhumerus -52.5063 30.2626 -90.4835
rradius 46.7465
rwrist -8.80683
rhand -10.8599 -17.5154
rfingers 7.12502
rthumb 15.1554 -46.9405
lclavicle 4.77083e-015 1.91951e-014
lhumerus -51.9429 -7.5404 86.8349
lradius 50.6569
lwrist 5.22341
lhand 1.98502 11.1448
lfingers 7.12502
lthumb 27.4903 39.1582
rfemur 4.14459 12.0427 24.2786
rtibia 14.8931
rfoot -23.3735 -1.96849
rtoes 10.2256
lfemur -22.1918 -2.41949 -13.4912
ltibia 33.8532
lfoot -17.7563 -8.68758
ltoes 1.3129
54
root -35.6204 17.5733 -2.9728 -10.9403 76.9023 -13.8981
lowerback 16.6614 -0.655139 -0.732787
upperback 6.70877 -0.576883 1.90368
thorax -2.16223 -0.184518 2.51604
lowerneck 0.774177 4.46113 0.409325
upperneck -11.1959 5.65221 -5.73999
head -3.58213 3.09717 -2.15604
rclavicle -1.67787e-014 1.57288e-014
rhumerus -52.5088 30.2146 -90.5138
rradius 46.7993
rwrist -8.82724
rhand -10.9621 -17.4739
rfingers 7.12502
rthumb 15.057 -46.9063
lclavicle -1.67787e-014 1.57288e-014
lhumerus -51.8893 -7.51886 86.7474
lradius 50.6954
lwrist 5.30184
lhand 1.96584 11.1702
lfingers 7.12502
lthumb 27.4719 39.1865
rfemur 4.14714 12.0353 24.2765
rtibia 14.8978
rfoot -23.3528 -1.98626
rtoes 10.0347
lfemur -22.1907 -2.41306 -13.4967
ltibia 33.8537
lfoot -17.8098 -8.70406
ltoes 1.07533
